<svg version="1.1" viewBox="0.0 0.0 718.1102362204724 718.1102362204724" fill="none" stroke="none" stroke-linecap="square" stroke-miterlimit="10" xmlns:xlink="http://www.w3.org/1999/xlink" xmlns="http://www.w3.org/2000/svg"><clipPath id="p.0"><path d="m0 0l718.1102 0l0 718.1102l-718.1102 0l0 -718.1102z" clip-rule="nonzero"/></clipPath><g clip-path="url(#p.0)"><path fill="#000000" fill-opacity="0.0" d="m0 0l718.1102 0l0 718.1102l-718.1102 0z" fill-rule="evenodd"/><path fill="#ffffff" d="m415.60474 -1.501423E-5c-26.574036 0 -51.376434 3.9595625 -74.40723 11.878688c-22.94223 7.9191256 -42.917023 18.978592 -59.924408 33.178402c-17.007355 14.472885 -30.382935 31.676506 -40.126755 51.610855c-9.655212 19.93435 -14.482834 42.053276 -14.482834 66.356804l110.81363 0c0 -10.922928 2.1259155 -20.75357 6.3777466 -29.491913c4.2518616 -8.738342 10.098145 -16.247864 17.538849 -22.52855c7.174988 -6.0076065 15.590088 -10.649857 25.24533 -13.926735c9.743805 -3.2768784 20.196228 -4.9153214 31.35733 -4.9153214c13.552734 0 25.422455 1.9115143 35.60916 5.734543c10.275269 3.823021 18.73468 9.147957 25.378174 15.974785c6.6434937 7.099907 11.603973 15.519676 14.881439 25.259285c3.3660583 9.64859 5.0490723 20.343948 5.0490723 32.086105c0 12.015228 -1.6830139 23.165726 -5.0490723 33.451477c-3.2774658 10.194748 -8.237946 18.842056 -14.881439 25.941956c-7.174988 8.1922 -16.564453 14.563919 -28.168457 19.115143c-11.515381 4.460205 -25.2453 6.6902924 -41.189697 6.6902924l-60.190125 0l0 88.47574l60.190125 0c15.147186 0 28.744202 1.7749634 40.791107 5.3249207c12.135468 3.5499573 22.58789 9.011414 31.35733 16.3844c8.503662 7.372986 15.014313 16.794006 19.53189 28.263092c4.517578 11.469086 6.776367 25.259277 6.776367 41.370605c0 12.834442 -1.948761 24.440063 -5.846283 34.816833c-3.8089294 10.376801 -9.433777 19.115143 -16.874481 26.215057c-7.706482 7.919098 -17.273132 13.926727 -28.699951 18.022797c-11.426819 4.0961304 -24.315216 6.144165 -38.66516 6.144165c-12.755524 0 -24.44809 -1.9570312 -35.077698 -5.8710938c-10.629608 -4.005066 -19.797638 -9.557526 -27.50412 -16.65744c-7.9721985 -6.8268433 -14.084198 -15.064575 -18.33606 -24.713135c-4.251831 -9.739624 -6.3777466 -20.343964 -6.3777466 -31.81305l-110.81363 0c0 28.94577 5.491974 54.068512 16.475891 75.368256c11.07251 21.299683 25.776794 38.912903 44.112854 52.83966c18.33606 14.199829 39.240936 24.804138 62.71466 31.81305c23.562286 6.9178467 47.700348 10.37677 72.414185 10.37677c28.69992 0 55.45108 -3.8685303 80.25351 -11.605591c24.89096 -7.828125 46.371613 -19.251709 64.441986 -34.27069c18.070312 -14.745972 32.287415 -33.04187 42.651245 -54.887756c10.363892 -21.845856 15.545837 -46.695526 15.545837 -74.54901c0 -15.838257 -1.8602295 -30.85727 -5.5805664 -45.0571c-3.720337 -14.199799 -9.433777 -27.307312 -17.140259 -39.32254c-7.706421 -11.742157 -17.494507 -22.255463 -29.364258 -31.539978c-11.781128 -9.284485 -25.776794 -16.930542 -41.98694 -22.93814c13.818481 -6.8268433 26.042542 -14.928009 36.67212 -24.303528c10.629639 -9.466522 19.531921 -19.797806 26.70691 -30.99382c7.174988 -11.195999 12.62262 -22.983643 16.343018 -35.362976c3.720337 -12.470337 5.5805054 -25.122742 5.5805054 -37.9572c0 -27.85347 -4.7390137 -52.339027 -14.217102 -73.45671c-9.389465 -21.208694 -22.58789 -39.049477 -39.595276 -53.52236c-17.007324 -14.19981 -37.4693 -24.895185 -61.385925 -32.08611c-23.916626 -7.2819595 -50.224884 -10.922932 -78.924805 -10.922932z" fill-rule="evenodd"/><path fill="#ffffff" d="m97.13386 -2.3622047E-6l132.89362 0l0 610.9373l390.9489 0l0 107.17291l-523.8425 0z" fill-rule="evenodd"/></g></svg>